<?xml version="1.0" encoding="UTF-8"?>
<!DOCTYPE svg PUBLIC "-//W3C//DTD SVG 1.1//EN" "http://www.w3.org/Graphics/SVG/1.1/DTD/svg11.dtd">
<svg xmlns="http://www.w3.org/2000/svg" version="1.1" viewBox="0 0 73 73" stroke="none">
	<rect width="100%" height="100%" fill="#ffffff"/>
	<path d="M20,20h7v1h-7z M36,20h1v2h-1z M40,20h3v1h-3z M44,20h1v1h-1z M46,20h7v1h-7z M20,21h1v6h-1z M26,21h1v6h-1z M30,21h1v3h-1z M32,21h2v1h-2z M41,21h1v3h-1z M42,21h1v1h-1z M46,21h1v6h-1z M52,21h1v6h-1z M22,22h3v3h-3z M34,22h2v1h-2z M37,22h2v4h-2z M40,22h1v1h-1z M43,22h2v1h-2z M48,22h3v3h-3z M28,23h1v1h-1z M32,23h1v2h-1z M42,23h1v4h-1z M29,24h1v1h-1z M33,24h1v2h-1z M35,24h1v1h-1z M28,25h1v3h-1z M30,25h1v4h-1z M34,25h1v2h-1z M36,25h1v2h-1z M40,25h1v3h-1z M41,25h1v1h-1z M44,25h1v3h-1z M21,26h5v1h-5z M32,26h1v1h-1z M38,26h1v1h-1z M47,26h5v1h-5z M33,27h1v2h-1z M35,27h1v2h-1z M43,27h1v1h-1z M21,28h2v2h-2z M26,28h1v1h-1z M29,28h1v1h-1z M32,28h1v2h-1z M34,28h1v1h-1z M36,28h1v1h-1z M38,28h2v3h-2z M42,28h1v4h-1z M46,28h2v1h-2z M49,28h1v4h-1z M20,29h1v3h-1z M23,29h2v1h-2z M31,29h1v1h-1z M37,29h1v1h-1z M43,29h1v3h-1z M45,29h2v1h-2z M51,29h2v1h-2z M21,30h1v1h-1z M24,30h1v1h-1z M26,30h1v1h-1z M28,30h1v1h-1z M30,30h1v1h-1z M34,30h3v1h-3z M41,30h1v1h-1z M44,30h1v2h-1z M50,30h1v1h-1z M52,30h1v5h-1z M22,31h2v1h-2z M32,31h1v1h-1z M35,31h2v1h-2z M38,31h1v2h-1z M46,31h2v2h-2z M48,31h1v1h-1z M23,32h2v3h-2z M26,32h1v1h-1z M29,32h2v1h-2z M33,32h1v3h-1z M36,32h2v1h-2z M39,32h1v3h-1z M51,32h1v2h-1z M22,33h1v1h-1z M29,33h1v1h-1z M31,33h2v1h-2z M34,33h1v6h-1z M36,33h1v1h-1z M40,33h1v3h-1z M43,33h1v2h-1z M46,33h1v2h-1z M49,33h1v1h-1z M21,34h1v1h-1z M26,34h1v1h-1z M28,34h1v2h-1z M30,34h1v1h-1z M35,34h1v1h-1z M38,34h1v1h-1z M41,34h2v1h-2z M44,34h2v3h-2z M47,34h1v1h-1z M50,34h1v1h-1z M20,35h1v6h-1z M24,35h1v2h-1z M27,35h1v2h-1z M29,35h1v1h-1z M32,35h1v1h-1z M36,35h2v2h-2z M42,35h1v3h-1z M49,35h1v5h-1z M22,36h2v1h-2z M25,36h2v1h-2z M30,36h1v1h-1z M33,36h1v1h-1z M35,36h1v2h-1z M38,36h1v1h-1z M46,36h2v1h-2z M51,36h1v2h-1z M21,37h1v3h-1z M25,37h1v1h-1z M28,37h2v1h-2z M37,37h1v2h-1z M39,37h1v2h-1z M41,37h1v2h-1z M43,37h1v2h-1z M45,37h2v1h-2z M52,37h1v3h-1z M22,38h1v1h-1z M26,38h1v1h-1z M29,38h2v1h-2z M38,38h1v1h-1z M44,38h2v1h-2z M50,38h1v1h-1z M25,39h1v5h-1z M27,39h1v1h-1z M29,39h1v1h-1z M31,39h1v1h-1z M33,39h1v2h-1z M35,39h2v2h-2z M40,39h1v4h-1z M42,39h1v1h-1z M47,39h2v1h-2z M51,39h1v1h-1z M22,40h2v1h-2z M26,40h1v1h-1z M28,40h1v2h-1z M30,40h1v1h-1z M34,40h1v5h-1z M37,40h1v4h-1z M38,40h2v1h-2z M43,40h2v2h-2z M46,40h1v3h-1z M31,41h1v4h-1z M39,41h1v2h-1z M45,41h1v2h-1z M47,41h1v1h-1z M49,41h1v4h-1z M50,41h1v1h-1z M52,41h1v3h-1z M20,42h3v1h-3z M24,42h1v1h-1z M26,42h1v1h-1z M38,42h1v7h-1z M42,42h1v4h-1z M43,42h1v1h-1z M48,42h1v1h-1z M22,43h2v1h-2z M27,43h2v1h-2z M32,43h1v3h-1z M33,43h1v1h-1z M35,43h2v1h-2z M44,43h1v7h-1z M47,43h1v2h-1z M20,44h2v1h-2z M26,44h1v1h-1z M28,44h3v1h-3z M39,44h1v4h-1z M45,44h2v1h-2z M48,44h1v8h-1z M28,45h1v1h-1z M30,45h1v2h-1z M33,45h1v4h-1z M35,45h3v1h-3z M43,45h1v1h-1z M52,45h1v2h-1z M20,46h7v1h-7z M31,46h1v2h-1z M40,46h2v1h-2z M46,46h1v1h-1z M49,46h3v1h-3z M20,47h1v6h-1z M26,47h1v6h-1z M29,47h1v6h-1z M34,47h2v1h-2z M37,47h1v1h-1z M42,47h1v6h-1z M22,48h3v3h-3z M32,48h1v1h-1z M43,48h1v1h-1z M45,48h3v1h-3z M52,48h1v3h-1z M35,49h2v2h-2z M39,49h2v1h-2z M49,49h1v4h-1z M50,49h1v1h-1z M28,50h1v2h-1z M31,50h1v2h-1z M39,50h1v1h-1z M45,50h1v3h-1z M47,50h1v1h-1z M51,50h1v1h-1z M35,51h1v2h-1z M37,51h2v1h-2z M40,51h1v1h-1z M44,51h1v2h-1z M21,52h5v1h-5z M30,52h1v1h-1z M34,52h1v1h-1z M36,52h1v1h-1z M38,52h1v1h-1z M46,52h2v1h-2z M52,52h1v1h-1z" fill="#000000"/>
</svg>
